{
    "streams": [
        {
            "index": 0,
            "codec_name": "mpeg4",
            "codec_long_name": "MPEG-4 part 2",
            "profile": "Advanced Simple Profile",
            "codec_type": "video",
            "codec_tag_string": "FMP4",
            "codec_tag": "0x34504d46",
            "width": 720,
            "height": 578,
            "coded_width": 720,
            "coded_height": 578,
            "closed_captions": 0,
            "film_grain": 0,
            "has_b_frames": 0,
            "sample_aspect_ratio": "150:101",
            "display_aspect_ratio": "54000:29189",
            "pix_fmt": "yuv420p",
            "level": 1,
            "chroma_location": "left",
            "refs": 1,
            "quarter_sample": "false",
            "divx_packed": "false",
            "r_frame_rate": "25/1",
            "avg_frame_rate": "25/1",
            "time_base": "1/25",
            "start_pts": 0,
            "start_time": "0.000000",
            "duration_ts": 78187,
            "duration": "3127.480000",
            "bit_rate": "2076823",
            "nb_frames": "78187",
            "extradata_size": 49,
            "disposition": {
                "default": 0,
                "dub": 0,
                "original": 0,
                "comment": 0,
                "lyrics": 0,
                "karaoke": 0,
                "forced": 0,
                "hearing_impaired": 0,
                "visual_impaired": 0,
                "clean_effects": 0,
                "attached_pic": 0,
                "timed_thumbnails": 0,
                "captions": 0,
                "descriptions": 0,
                "metadata": 0,
                "dependent": 0,
                "still_image": 0
            },
            "tags": {
                "title": "mpeg4 720x578 37/20"
            }
        },
        {
            "index": 1,
            "codec_name": "ac3",
            "codec_long_name": "ATSC A/52A (AC-3)",
            "codec_type": "audio",
            "codec_tag_string": "[0] [0][0]",
            "codec_tag": "0x2000",
            "sample_fmt": "fltp",
            "sample_rate": "48000",
            "channels": 2,
            "channel_layout": "stereo",
            "bits_per_sample": 0,
            "initial_padding": 0,
            "r_frame_rate": "0/0",
            "avg_frame_rate": "0/0",
            "time_base": "4/125",
            "start_pts": 0,
            "start_time": "0.000000",
            "duration_ts": 97718,
            "duration": "3126.976000",
            "bit_rate": "160000",
            "nb_frames": "97718",
            "disposition": {
                "default": 0,
                "dub": 0,
                "original": 0,
                "comment": 0,
                "lyrics": 0,
                "karaoke": 0,
                "forced": 0,
                "hearing_impaired": 0,
                "visual_impaired": 0,
                "clean_effects": 0,
                "attached_pic": 0,
                "timed_thumbnails": 0,
                "captions": 0,
                "descriptions": 0,
                "metadata": 0,
                "dependent": 0,
                "still_image": 0
            },
            "tags": {
                "title": "ac3 48000Hz 2Ch. (Polish)"
            }
        },
        {
            "index": 2,
            "codec_name": "ac3",
            "codec_long_name": "ATSC A/52A (AC-3)",
            "codec_type": "audio",
            "codec_tag_string": "[0] [0][0]",
            "codec_tag": "0x2000",
            "sample_fmt": "fltp",
            "sample_rate": "48000",
            "channels": 2,
            "channel_layout": "stereo",
            "bits_per_sample": 0,
            "initial_padding": 0,
            "r_frame_rate": "0/0",
            "avg_frame_rate": "0/0",
            "time_base": "4/125",
            "start_pts": 0,
            "start_time": "0.000000",
            "duration_ts": 97717,
            "duration": "3126.944000",
            "bit_rate": "192000",
            "nb_frames": "97717",
            "disposition": {
                "default": 0,
                "dub": 0,
                "original": 0,
                "comment": 0,
                "lyrics": 0,
                "karaoke": 0,
                "forced": 0,
                "hearing_impaired": 0,
                "visual_impaired": 0,
                "clean_effects": 0,
                "attached_pic": 0,
                "timed_thumbnails": 0,
                "captions": 0,
                "descriptions": 0,
                "metadata": 0,
                "dependent": 0,
                "still_image": 0
            },
            "tags": {
                "title": "ac3 48000Hz 2Ch. (Polish)"
            }
        }
    ]
}
